<svg width="32" height="32" viewBox="0 0 32 32" fill="none" xmlns="http://www.w3.org/2000/svg">
<g clip-path="url(#clip0_56_1126)">
<path d="M2 2.17723C-0.51467 4.78924 -3.90808e-06 7.5639 -3.90808e-06 15.9932C-3.90808e-06 22.9932 -1.22134 30.0106 5.17066 31.6626C7.16666 32.1759 24.852 32.1759 26.8453 31.6599C29.5067 30.9733 31.672 28.8146 31.968 25.0506C32.0093 24.5252 32.0093 7.47057 31.9667 6.93457C31.652 2.92523 29.184 0.614566 25.932 0.146566C25.1867 0.0385658 25.0373 0.0065658 21.2133 -0.000100872C7.64933 0.0065658 4.676 -0.597435 2 2.17723V2.17723Z" fill="url(#paint0_linear_56_1126)"/>
<path d="M15.9973 4.18523C11.156 4.18523 6.55867 3.75456 4.80267 8.26123C4.07734 10.1226 4.18267 12.5399 4.18267 16.0012C4.18267 19.0386 4.08534 21.8932 4.80267 23.7399C6.55467 28.2492 11.1893 27.8172 15.9947 27.8172C20.6307 27.8172 25.4107 28.2999 27.188 23.7399C27.9147 21.8599 27.808 19.4786 27.808 16.0012C27.808 11.3852 28.0627 8.40523 25.824 6.1679C23.5573 3.90123 20.492 4.18523 15.992 4.18523H15.9973ZM14.9387 6.31456C25.0373 6.29856 26.3227 5.1759 25.6133 20.7719C25.3613 26.2879 21.1613 25.6826 15.9987 25.6826C6.58534 25.6826 6.31467 25.4132 6.31467 15.9959C6.31467 6.46923 7.06134 6.3199 14.9387 6.3119V6.31456ZM22.304 8.27589C21.5213 8.27589 20.8867 8.91056 20.8867 9.69323C20.8867 10.4759 21.5213 11.1106 22.304 11.1106C23.0867 11.1106 23.7213 10.4759 23.7213 9.69323C23.7213 8.91056 23.0867 8.27589 22.304 8.27589V8.27589ZM15.9973 9.93323C12.6467 9.93323 9.93068 12.6506 9.93068 16.0012C9.93068 19.3519 12.6467 22.0679 15.9973 22.0679C19.348 22.0679 22.0627 19.3519 22.0627 16.0012C22.0627 12.6506 19.348 9.93323 15.9973 9.93323V9.93323ZM15.9973 12.0626C21.204 12.0626 21.2107 19.9399 15.9973 19.9399C10.792 19.9399 10.784 12.0626 15.9973 12.0626Z" fill="white"/>
</g>
<defs>
<linearGradient id="paint0_linear_56_1126" x1="2.06136" y1="29.956" x2="31.802" y2="4.21589" gradientUnits="userSpaceOnUse">
<stop stop-color="#FFDD55"/>
<stop offset="0.5" stop-color="#FF543E"/>
<stop offset="1" stop-color="#C837AB"/>
</linearGradient>
<clipPath id="clip0_56_1126">
<rect width="32" height="32" fill="white"/>
</clipPath>
</defs>
</svg>
