<svg width="32" height="26" viewBox="0 0 32 26" fill="none" xmlns="http://www.w3.org/2000/svg">
<path d="M28.736 7.332C28.736 7.04266 28.7253 6.76133 28.712 6.484C30.0133 5.56 31.108 4.40667 32 3.07867V3.07733C30.8093 3.59867 29.5427 3.94533 28.22 4.11333C29.58 3.30133 30.6187 2.02533 31.1067 0.488C29.8387 1.244 28.4387 1.77733 26.9467 2.076C25.7427 0.793333 24.0267 0 22.1547 0C18.5227 0 15.5987 2.948 15.5987 6.56133C15.5987 7.08133 15.6427 7.58133 15.7507 8.05733C10.2973 7.79066 5.47067 5.17733 2.228 1.19467C1.66267 2.17733 1.32933 3.30133 1.32933 4.51066C1.32933 6.78266 2.49867 8.796 4.244 9.96266C3.18933 9.94266 2.156 9.636 1.28 9.15466V9.22666C1.28 12.4147 3.55333 15.0627 6.536 15.6733C5.53333 15.948 4.29867 15.9373 3.57467 15.7773C4.424 18.3747 6.83733 20.2853 9.704 20.348C7.472 22.0933 4.63733 23.1453 1.56933 23.1453C1.032 23.1453 0.516 23.1213 0 23.056C2.90667 24.9293 6.34933 26 10.064 26C22.136 26 28.736 16 28.736 7.332Z" fill="#55ACEE"/>
</svg>
