<svg width="64" height="64" viewBox="0 0 64 64" fill="none" xmlns="http://www.w3.org/2000/svg">
<circle cx="32" cy="32" r="32" fill="#E5E7EB"/>
<mask id="mask0_37_800" style="mask-type:alpha" maskUnits="userSpaceOnUse" x="0" y="0" width="64" height="64">
<circle cx="32" cy="32" r="32" fill="#C4C4C4"/>
</mask>
<g mask="url(#mask0_37_800)">
<g clip-path="url(#clip0_37_800)">
<path d="M60.4865 16.0089C59.6426 16.0089 16.0039 16.0089 15.7592 16.0089C13.4295 16.0089 11.5341 17.9043 11.5341 20.234V51.926C11.5341 53.9865 13.0611 55.7723 15.0931 56.0979L15.8541 56.7054H59.7351L61.1527 56.0979C63.1847 55.7723 64.7117 53.9865 64.7117 51.926C64.7117 50.8715 64.7117 21.1878 64.7117 20.234C64.7116 17.9043 62.8162 16.0089 60.4865 16.0089Z" fill="#365E7D"/>
<path d="M15.5646 51.9262V20.2342C15.5646 17.9044 17.46 16.009 19.7897 16.009C17.3294 16.009 15.8044 16.009 15.7592 16.009C13.4295 16.009 11.5341 17.9044 11.5341 20.2342V51.9262C11.5341 53.9867 13.0611 55.7724 15.0931 56.098L15.8541 56.7055H19.8846L19.1236 56.098C17.0916 55.7724 15.5646 53.9867 15.5646 51.9262Z" fill="#2B4D66"/>
<path d="M60.4017 23.4716H16.0965L15.3297 24.2719V51.5786C15.3297 51.9972 15.6691 52.3367 16.0877 52.3367H60.1579C60.5765 52.3367 60.9159 51.9972 60.9159 51.5786C60.9159 50.8627 60.9159 25.1004 60.9159 24.2719L60.4017 23.4716Z" fill="#E4F6FF"/>
<path d="M20.2574 51.5786V24.2719L21.0241 23.4716H16.0965L15.3297 24.2719V51.5786C15.3297 51.9972 15.6691 52.3367 16.0877 52.3367H21.0154C20.5969 52.3367 20.2574 51.9972 20.2574 51.5786Z" fill="#D3EFFB"/>
<path d="M20.2574 19.7761H16.0877C15.6691 19.7761 15.3297 20.1155 15.3297 20.5342V24.2719H20.2574L20.5815 23.9261V20.0167L20.2574 19.7761Z" fill="#DD636E"/>
<path d="M60.158 19.7761C58.2004 19.7761 21.8089 19.7761 20.2574 19.7761V24.2719H60.9159V20.5342C60.916 20.1156 60.5766 19.7761 60.158 19.7761Z" fill="#B1E4F9"/>
<path d="M67.5402 56.098H8.7055C8.31587 56.098 8 56.4169 8 56.8104V59.2606C8 61.0786 9.47312 62.5661 11.2735 62.5661H64.9721C66.7725 62.5661 68.2456 61.0786 68.2456 59.2606V56.8104C68.2458 56.4169 67.9299 56.098 67.5402 56.098Z" fill="#407093"/>
<path d="M15.3298 59.2605V56.8103C15.3298 56.4169 15.6456 56.0979 16.0352 56.0979H8.7055C8.31587 56.0979 8 56.4168 8 56.8103V59.2605C8 61.0785 9.47312 62.566 11.2735 62.566H18.6032C16.8029 62.566 15.3298 61.0785 15.3298 59.2605Z" fill="#365E7D"/>
<path d="M71.3293 64.9285V39.775L72 39.1403C72 37.5524 72 36.5165 72 36.3144C72 34.8633 70.8236 33.6869 69.3725 33.6869H53.246C51.7949 33.6869 50.6185 34.8633 50.6185 36.3144V39.1403L51.3696 39.818V65.165L50.6185 65.63V69.3638C50.6185 70.8149 51.7949 71.9913 53.246 71.9913H69.3725C70.8236 71.9913 72 70.8149 72 69.3638C72 69.1253 72 67.7269 72 65.63L71.3293 64.9285Z" fill="#365E7D"/>
<path d="M54.4924 69.3636V65.6299L55.2435 65.1649V39.818L54.4924 39.1403V36.3144C54.4924 34.8633 55.6688 33.6869 57.1199 33.6869H53.246C51.7949 33.6869 50.6185 34.8633 50.6185 36.3144V39.1403L51.3696 39.818V65.165L50.6185 65.63V69.3638C50.6185 70.8149 51.7949 71.9913 53.246 71.9913H57.1199C55.6688 71.9911 54.4924 70.8148 54.4924 69.3636Z" fill="#294B64"/>
<path d="M37.479 46.3805C41.9394 46.3805 45.5552 42.7647 45.5552 38.3043C45.5552 33.8439 41.9394 30.228 37.479 30.228C33.0186 30.228 29.4027 33.8439 29.4027 38.3043C29.4027 42.7647 33.0186 46.3805 37.479 46.3805Z" fill="#DD636E"/>
<path d="M32.4934 38.3043C32.4934 34.3725 35.3034 31.0987 39.0244 30.3774C38.524 30.2804 38.0077 30.228 37.4791 30.228C33.0187 30.228 29.4029 33.8439 29.4029 38.3043C29.4029 42.7647 33.0187 46.3805 37.4791 46.3805C38.0077 46.3805 38.524 46.3282 39.0244 46.2312C35.3034 45.5099 32.4934 42.236 32.4934 38.3043Z" fill="#DA4A54"/>
<path d="M40.7655 37.4679L36.6211 34.6419C35.9491 34.1837 35.0385 34.6649 35.0385 35.4783V41.1303C35.0385 41.9437 35.9491 42.4249 36.6211 41.9667L40.7655 39.1407C41.3549 38.7388 41.3549 37.8698 40.7655 37.4679Z" fill="#F4FBFF"/>
<path d="M38.1289 35.67L36.621 34.6419C35.949 34.1837 35.0384 34.6649 35.0384 35.4783V41.1303C35.0384 41.9437 35.949 42.4249 36.621 41.9667L38.1289 40.9385V35.67Z" fill="#E4F6FF"/>
<path d="M50.6185 42.8226H72V65.6299H50.6185V42.8226Z" fill="#90D8F9"/>
<path d="M50.6185 42.8226H54.4921V65.6299H50.6185V42.8226Z" fill="#75CEF9"/>
<path d="M61.3092 61.2182C65.1913 61.2182 68.3382 58.0712 68.3382 54.1892C68.3382 50.3071 65.1913 47.1602 61.3092 47.1602C57.4272 47.1602 54.2802 50.3071 54.2802 54.1892C54.2802 58.0712 57.4272 61.2182 61.3092 61.2182Z" fill="#DD636E"/>
<path d="M56.9361 54.1892C56.9361 50.7613 59.3904 47.9082 62.6372 47.287C62.207 47.2048 61.7635 47.16 61.3092 47.16C57.4272 47.16 54.2802 50.307 54.2802 54.1892C54.2802 58.0712 57.4272 61.2182 61.3092 61.2182C61.7635 61.2182 62.207 61.1734 62.6372 61.0912C59.3904 60.4702 56.9361 57.6169 56.9361 54.1892Z" fill="#DA4A54"/>
<path d="M50.6185 39.1403H54.5566V43.0058H50.6185V39.1403Z" fill="#DD636E"/>
<path d="M54.492 39.1403V43.0058H72V39.1403C69.8719 39.1403 56.6448 39.1403 54.492 39.1403Z" fill="#B1E4F9"/>
<path d="M64.1695 53.4611L60.5625 51.0016C59.9776 50.6029 59.185 51.0218 59.185 51.7296V56.6488C59.185 57.3566 59.9776 57.7755 60.5625 57.3768L64.1695 54.9171C64.6825 54.5673 64.6825 53.8109 64.1695 53.4611Z" fill="#F4FBFF"/>
<path d="M61.841 51.8734L60.5625 51.0017C59.9776 50.6029 59.185 51.0217 59.185 51.7297V56.6488C59.185 57.3567 59.9776 57.7755 60.5625 57.3767L61.841 56.5049V51.8734Z" fill="#E4F6FF"/>
</g>
</g>
<defs>
<clipPath id="clip0_37_800">
<rect width="64" height="64" fill="white" transform="translate(8 12)"/>
</clipPath>
</defs>
</svg>
