<svg width="64" height="64" viewBox="0 0 64 64" fill="none" xmlns="http://www.w3.org/2000/svg">
<circle cx="32" cy="32" r="32" fill="#E5E7EB"/>
<mask id="mask0_37_899" style="mask-type:alpha" maskUnits="userSpaceOnUse" x="0" y="0" width="64" height="64">
<circle cx="32" cy="32" r="32" fill="#C4C4C4"/>
</mask>
<g mask="url(#mask0_37_899)">
<g clip-path="url(#clip0_37_899)">
<path d="M61.343 71.7334C63.6994 71.7334 65.6096 69.8231 65.6096 67.4668V16.2667C65.6098 13.9102 63.6995 12 61.343 12H18.657C16.3005 12 14.3903 13.9102 14.3903 16.2666V67.4666C14.3903 69.823 16.3005 71.7332 18.6569 71.7332H61.343V71.7334Z" fill="#FFDC67"/>
<path d="M52.7903 67.4666H55.9903C56.4915 67.4666 56.9275 67.118 57.0313 66.6275C57.3924 64.9211 58.8171 63.5137 60.501 63.1551C60.9924 63.0505 61.343 62.6159 61.343 62.1135V21.6197C61.343 21.1174 60.9924 20.6827 60.501 20.5781C58.8173 20.2195 57.3924 18.8121 57.0313 17.1057C56.9275 16.6152 56.4915 16.2666 55.9903 16.2666H24.0098C23.5085 16.2666 23.0725 16.6152 22.9686 17.1057C22.6076 18.8121 21.1828 20.2195 19.4989 20.5781C19.0075 20.6827 18.6569 21.1174 18.6569 21.6197V62.1136C18.6569 62.616 19.0075 63.0506 19.4989 63.1552C21.1826 63.5139 22.6075 64.9212 22.9686 66.6276C23.0724 67.1181 23.5084 67.4667 24.0098 67.4667H39.9904H52.7903V67.4666Z" fill="#F9F5F5"/>
<path d="M61.343 12H58.3813C60.7376 12 62.6479 13.9102 62.6479 16.2666V67.4666C62.6479 69.823 60.7376 71.7332 58.3813 71.7332H61.343C63.6994 71.7332 65.6096 69.823 65.6096 67.4666V16.2666C65.6098 13.9102 63.6995 12 61.343 12V12Z" fill="#FFB957"/>
<path d="M60.5011 20.5781C58.8174 20.2195 57.3925 18.8121 57.0314 17.1057C56.9276 16.6152 56.4916 16.2666 55.9904 16.2666H53.0286C53.5299 16.2666 53.9659 16.6152 54.0696 17.1057C54.4306 18.8121 55.8555 20.2195 57.5394 20.5781C58.0308 20.6827 58.3814 21.1174 58.3814 21.6197V62.1136C58.3814 62.616 58.0308 63.0506 57.5394 63.1552C55.8556 63.5139 54.4308 64.9212 54.0696 66.6276C53.9659 67.1181 53.5299 67.4667 53.0286 67.4667H55.9904C56.4916 67.4667 56.9276 67.1181 57.0314 66.6276C57.3924 64.9212 58.8173 63.5139 60.5011 63.1552C60.9925 63.0506 61.3431 62.616 61.3431 62.1136V21.6197C61.343 21.1174 60.9925 20.6827 60.5011 20.5781Z" fill="#E2D8EC"/>
<path d="M47.5236 26.9334H32.457C31.9048 26.9334 31.457 26.4856 31.457 25.9334V23.6666C31.457 23.1144 31.9048 22.6666 32.457 22.6666H47.5236C48.0759 22.6666 48.5236 23.1144 48.5236 23.6666V25.9333C48.5236 26.4856 48.0759 26.9334 47.5236 26.9334Z" fill="#7DA8FF"/>
<path d="M51.8164 63.3856L52.565 64.883C52.7131 65.1792 52.7902 65.5059 52.7902 65.837V74.9326C52.7902 75.6606 52.077 76.1747 51.3862 75.9445L48.5237 74.9902L46.7275 73.6177C46.5085 73.5447 46.2719 73.5447 46.0529 73.6177L44.2569 74.9902L41.3941 75.9445C40.7034 76.1747 39.9901 75.6606 39.9901 74.9326V65.837C39.9901 65.5057 40.0672 65.1791 40.2154 64.883L40.9639 63.386L51.8164 63.3856Z" fill="#FF5856"/>
<path d="M52.5651 64.8829L51.8165 63.3855L48.8548 63.3856L49.6034 64.8829C49.7515 65.1791 49.8286 65.5057 49.8286 65.8369V74.9325C49.8286 75.0986 49.79 75.2529 49.7244 75.3904L51.3864 75.9444C52.0771 76.1746 52.7904 75.6605 52.7904 74.9325V65.8369C52.7903 65.5057 52.7131 65.1791 52.5651 64.8829Z" fill="#F54745"/>
<path d="M48.5236 63.3856L44.2569 63.3857V74.9901L46.0529 74.3915C46.2719 74.3185 46.5085 74.3185 46.7275 74.3915L48.5235 74.9901V63.3856H48.5236Z" fill="#F9F5F5"/>
<path d="M46.3903 65.3334C51.1031 65.3334 54.9236 61.5128 54.9236 56.8C54.9236 52.0871 51.1031 48.2666 46.3903 48.2666C41.6774 48.2666 37.8569 52.0871 37.8569 56.8C37.8569 61.5128 41.6774 65.3334 46.3903 65.3334Z" fill="#FFDC67"/>
<path d="M46.3903 61.0666C48.7466 61.0666 50.6569 59.1563 50.6569 56.7999C50.6569 54.4436 48.7466 52.5333 46.3903 52.5333C44.0339 52.5333 42.1236 54.4436 42.1236 56.7999C42.1236 59.1563 44.0339 61.0666 46.3903 61.0666Z" fill="#FFB456"/>
<path d="M46.3903 48.2666C45.8849 48.2666 45.3906 48.3131 44.9094 48.3974C48.9159 49.0989 51.9619 52.5926 51.9619 56.8C51.9619 61.0074 48.916 64.5011 44.9094 65.2026C45.3906 65.2869 45.8849 65.3334 46.3903 65.3334C51.1031 65.3334 54.9236 61.5129 54.9236 56.8C54.9236 52.0871 51.1031 48.2666 46.3903 48.2666Z" fill="#FFB957"/>
<path d="M61.3334 15.0343C60.7999 15.0343 60.3676 15.4667 60.3676 16.0001V16.5334C60.3676 17.0668 60.8 17.4992 61.3334 17.4992C61.8669 17.4992 62.2991 17.0668 62.2991 16.5334V16.0001C62.2991 15.4667 61.8667 15.0343 61.3334 15.0343Z" fill="#FFB456"/>
<path d="M18.657 15.0343C18.1235 15.0343 17.6913 15.4667 17.6913 16.0001V16.5334C17.6913 17.0668 18.1236 17.4992 18.657 17.4992C19.1905 17.4992 19.6228 17.0668 19.6228 16.5334V16.0001C19.6228 15.4667 19.1905 15.0343 18.657 15.0343Z" fill="#FFB456"/>
<path d="M46.657 55.8341H46.1236C45.5901 55.8341 45.1579 56.2665 45.1579 56.7999C45.1579 57.3332 45.5902 57.7656 46.1236 57.7656H46.657C47.1905 57.7656 47.6227 57.3332 47.6227 56.7999C47.6227 56.2665 47.1905 55.8341 46.657 55.8341Z" fill="#FF9A56"/>
<path d="M27.1904 32.1659H52.7904C53.3238 32.1659 53.7561 31.7335 53.7561 31.2001C53.7561 30.6667 53.3238 30.2344 52.7904 30.2344H27.1904C26.6569 30.2344 26.2246 30.6667 26.2246 31.2001C26.2246 31.7335 26.6569 32.1659 27.1904 32.1659Z" fill="#365E7D"/>
<path d="M52.7903 34.5009H27.1903C26.6568 34.5009 26.2245 34.9332 26.2245 35.4666C26.2245 36 26.6569 36.4324 27.1903 36.4324H52.7903C53.3236 36.4324 53.756 36 53.756 35.4666C53.756 34.9332 53.3238 34.5009 52.7903 34.5009Z" fill="#365E7D"/>
<path d="M52.7903 38.7675H27.1903C26.6568 38.7675 26.2245 39.1998 26.2245 39.7332C26.2245 40.2666 26.6569 40.699 27.1903 40.699H52.7903C53.3236 40.699 53.756 40.2666 53.756 39.7332C53.756 39.1998 53.3238 38.7675 52.7903 38.7675Z" fill="#365E7D"/>
<path d="M46.3903 43.0343H33.5904C33.0569 43.0343 32.6246 43.4667 32.6246 44.0001C32.6246 44.5334 33.057 44.9658 33.5904 44.9658H46.3903C46.9236 44.9658 47.356 44.5334 47.356 44.0001C47.3561 43.4667 46.9238 43.0343 46.3903 43.0343Z" fill="#365E7D"/>
<path d="M47.4935 22.6666H44.5317C45.1007 22.6666 45.5619 23.1279 45.5619 23.6969V25.9033C45.5619 26.4721 45.1006 26.9334 44.5317 26.9334H47.4935C48.0624 26.9334 48.5236 26.4721 48.5236 25.9033V23.6969C48.5236 23.1279 48.0624 22.6666 47.4935 22.6666Z" fill="#7092FF"/>
</g>
</g>
<defs>
<clipPath id="clip0_37_899">
<rect width="64" height="64" fill="white" transform="translate(8 12)"/>
</clipPath>
</defs>
</svg>
