<svg width="64" height="64" viewBox="0 0 64 64" fill="none" xmlns="http://www.w3.org/2000/svg">
<circle cx="32" cy="32" r="32" fill="#E5E7EB"/>
<mask id="mask0_37_841" style="mask-type:alpha" maskUnits="userSpaceOnUse" x="0" y="0" width="64" height="64">
<circle cx="32" cy="32" r="32" fill="#C4C4C4"/>
</mask>
<g mask="url(#mask0_37_841)">
<g clip-path="url(#clip0_37_841)">
<path d="M60.6201 36.4858H52.8545V37.8028C52.8545 40.5553 50.6025 42.5498 47.85 42.5498H28.4846C27.8656 42.5498 27.4459 43.169 27.662 43.749C27.9338 44.4781 28.2821 45.4393 28.7055 46.1048L31.298 50.1806C31.759 50.9055 31.2535 51.5292 30.4701 51.1762L27.3447 49.7683C27.1902 49.6987 27.0386 49.6251 26.888 49.5502V62.2887C26.888 65.0412 29.14 67.2932 31.8925 67.2932H51.2579C51.8769 67.2932 52.2966 67.9123 52.0805 68.4923C51.8088 69.2216 51.4604 69.9251 51.037 70.5907L48.4445 74.6665C47.9834 75.3913 48.7466 76.2726 49.53 75.9197L52.6554 74.5118C55.5554 73.2055 57.797 70.9496 59.1159 68.235C59.3958 67.6588 59.9798 67.2933 60.6203 67.2933C63.3727 67.2933 65.6247 65.0413 65.6247 62.2888V41.4903C65.6247 38.7378 63.3727 36.4858 60.6201 36.4858Z" fill="#FFD301"/>
<path d="M33.8417 62.2888V42.5499H28.4846C27.8656 42.5499 27.4459 43.1691 27.6621 43.7491C27.9339 44.4782 28.2822 45.4394 28.7056 46.1049L31.2981 50.1807C31.7591 50.9056 31.2536 51.5293 30.4702 51.1763L27.3449 49.7684C27.1904 49.6988 27.0387 49.6252 26.8881 49.5503V62.2888C26.8881 65.0413 29.1401 67.2933 31.8926 67.2933H38.8464C36.0937 67.2933 33.8417 65.0413 33.8417 62.2888Z" fill="#FFC20C"/>
<path d="M19.3799 12H48.1075C50.86 12 53.112 14.252 53.112 17.0045V37.8029C53.112 40.5554 50.86 42.8074 48.1075 42.8074H28.7421C28.1231 42.8074 27.7034 43.4265 27.9195 44.0065C28.1912 44.7358 28.5396 45.4392 28.9631 46.1049L31.5556 50.1806C32.0167 50.9055 31.2535 51.7868 30.4701 51.4339L27.3447 50.026C24.4449 48.7196 22.2031 46.4637 20.8842 43.7491C20.6044 43.1729 20.0204 42.8075 19.3798 42.8075C16.6273 42.8075 14.3753 40.5555 14.3753 37.803V17.0045C14.3753 14.252 16.6274 12 19.3799 12V12Z" fill="#60B8FE"/>
<path d="M28.9631 46.1049C28.5398 45.4392 28.1913 44.7358 27.9195 44.0065C27.8959 43.943 27.8811 43.8791 27.8721 43.8156C27.8611 43.7932 27.8489 43.7715 27.838 43.749C27.5581 43.1728 26.9741 42.8074 26.3335 42.8074C23.581 42.8074 21.329 40.5554 21.329 37.8029V17.0045C21.329 14.252 23.581 12 26.3335 12H19.3798C16.6273 12 14.3753 14.252 14.3753 17.0045V37.8029C14.3753 40.5554 16.6273 42.8074 19.3798 42.8074C20.0203 42.8074 20.6043 43.1728 20.8843 43.749C22.2031 46.4636 24.4448 48.7195 27.3448 50.0259L30.4701 51.4338C31.2535 51.7866 32.0166 50.9055 31.5556 50.1805L28.9631 46.1049Z" fill="#23A8FE"/>
<path d="M46.673 20.0179H20.8144C20.281 20.0179 19.8486 19.5856 19.8486 19.0522C19.8486 18.5188 20.281 18.0864 20.8144 18.0864H46.6729C47.2062 18.0864 47.6386 18.5188 47.6386 19.0522C47.6386 19.5856 47.2064 20.0179 46.673 20.0179Z" fill="#23A8FE"/>
<path d="M46.673 24.1494H20.8144C20.281 24.1494 19.8486 23.717 19.8486 23.1836C19.8486 22.6503 20.281 22.2179 20.8144 22.2179H46.6729C47.2062 22.2179 47.6386 22.6503 47.6386 23.1836C47.6388 23.717 47.2064 24.1494 46.673 24.1494Z" fill="#23A8FE"/>
<path d="M46.673 28.2807H20.8144C20.281 28.2807 19.8486 27.8484 19.8486 27.315C19.8486 26.7816 20.281 26.3492 20.8144 26.3492H46.6729C47.2062 26.3492 47.6386 26.7816 47.6386 27.315C47.6388 27.8484 47.2064 28.2807 46.673 28.2807Z" fill="#23A8FE"/>
<path d="M46.673 32.4123H20.8144C20.281 32.4123 19.8486 31.98 19.8486 31.4466C19.8486 30.9132 20.281 30.4808 20.8144 30.4808H46.6729C47.2062 30.4808 47.6386 30.9132 47.6386 31.4466C47.6386 31.98 47.2064 32.4123 46.673 32.4123Z" fill="#23A8FE"/>
<path d="M46.673 36.5438H20.8144C20.281 36.5438 19.8486 36.1114 19.8486 35.5781C19.8486 35.0447 20.281 34.6123 20.8144 34.6123H46.6729C47.2062 34.6123 47.6386 35.0447 47.6386 35.5781C47.6386 36.1114 47.2064 36.5438 46.673 36.5438Z" fill="#23A8FE"/>
<path d="M36.4048 53.9287C37.531 53.9287 38.444 53.0157 38.444 51.8895C38.444 50.7632 37.531 49.8502 36.4048 49.8502C35.2785 49.8502 34.3655 50.7632 34.3655 51.8895C34.3655 53.0157 35.2785 53.9287 36.4048 53.9287Z" fill="#DFEBFA"/>
<path d="M43.4115 53.9287C44.5377 53.9287 45.4508 53.0157 45.4508 51.8895C45.4508 50.7632 44.5377 49.8502 43.4115 49.8502C42.2853 49.8502 41.3723 50.7632 41.3723 51.8895C41.3723 53.0157 42.2853 53.9287 43.4115 53.9287Z" fill="#DFEBFA"/>
<path d="M50.4181 53.9287C51.5444 53.9287 52.4574 53.0157 52.4574 51.8895C52.4574 50.7632 51.5444 49.8502 50.4181 49.8502C49.2919 49.8502 48.3789 50.7632 48.3789 51.8895C48.3789 53.0157 49.2919 53.9287 50.4181 53.9287Z" fill="#DFEBFA"/>
<path d="M57.4248 53.9287C58.551 53.9287 59.464 53.0157 59.464 51.8895C59.464 50.7632 58.551 49.8502 57.4248 49.8502C56.2985 49.8502 55.3855 50.7632 55.3855 51.8895C55.3855 53.0157 56.2985 53.9287 57.4248 53.9287Z" fill="#DFEBFA"/>
</g>
</g>
<defs>
<clipPath id="clip0_37_841">
<rect width="64" height="64" fill="white" transform="translate(8 12)"/>
</clipPath>
</defs>
</svg>
