<svg width="86" height="32" viewBox="0 0 86 32" fill="none" xmlns="http://www.w3.org/2000/svg">
<rect width="85.3333" height="32" rx="4" fill="#0D2B5B"/>
<path d="M6.07575 19.9933C6.07575 18.9337 6.05723 18.0466 6 17.2529H8.00398L8.09908 18.6147H8.15463C8.60828 17.8959 9.43983 17.0442 10.9902 17.0442C12.2005 17.0442 13.1448 17.7259 13.5421 18.746H13.5808C13.9023 18.236 14.2793 17.8572 14.7136 17.5938C15.2245 17.2336 15.812 17.0442 16.567 17.0442C18.0988 17.0442 19.6474 18.0836 19.6474 21.0345V26.4581H17.3791V21.3728C17.3791 19.8427 16.8497 18.9337 15.7346 18.9337C14.9409 18.9337 14.3542 19.5026 14.1093 20.1642C14.0412 20.4166 14.003 20.6763 13.9957 20.9377V26.4589H11.7274V21.1262C11.7274 19.8435 11.2174 18.9345 10.1392 18.9345C9.2715 18.9345 8.68571 19.6163 8.4753 20.2576C8.38188 20.4849 8.34316 20.7508 8.34316 21.0134V26.4589H6.07575V19.9933ZM28.4856 24.2479C28.4856 25.0786 28.5235 25.8908 28.6169 26.4589H26.5187L26.368 25.4388H26.3108C25.7435 26.1576 24.779 26.666 23.5905 26.666C21.7372 26.666 20.6978 25.3252 20.6978 23.9255C20.6978 21.5984 22.7565 20.4285 26.161 20.447V20.2963C26.161 19.6903 25.9143 18.6888 24.2883 18.6888C23.3801 18.6888 22.4358 18.9732 21.8121 19.3688L21.3585 17.8564C22.0394 17.4398 23.2303 17.0433 24.6847 17.0433C27.6347 17.0433 28.4864 18.9169 28.4864 20.9183L28.4856 24.2479ZM26.2165 21.9611C24.5711 21.9224 23.0031 22.2818 23.0031 23.6806C23.0031 24.5879 23.5905 25.0045 24.327 25.0045C25.252 25.0045 25.9337 24.3977 26.1416 23.737C26.1925 23.5718 26.218 23.3998 26.2173 23.227V21.9611H26.2165ZM30.0915 19.9933C30.0915 18.9337 30.0721 18.0466 30.0174 17.2529H32.0567L32.1695 18.6349H32.2267C32.6232 17.9153 33.6256 17.0442 35.1565 17.0442C36.7641 17.0442 38.4264 18.0836 38.4264 20.9966V26.4581H36.1017V21.2609C36.1017 19.9378 35.6093 18.9328 34.3435 18.9328C33.4185 18.9328 32.7738 19.5952 32.5289 20.2955C32.4531 20.5025 32.4346 20.787 32.4346 21.0496V26.4572H30.0906L30.0915 19.9933ZM48.5077 13.5547V23.8691C48.5077 24.8143 48.5464 25.8369 48.5834 26.4589H46.5054L46.4103 25.0045H46.3716C45.8245 26.0246 44.7076 26.6668 43.3669 26.6668C41.1735 26.6668 39.4355 24.7958 39.4355 21.962C39.4153 18.8798 41.3427 17.045 43.5562 17.045C44.8221 17.045 45.7294 17.5744 46.1452 18.2578H46.1847V13.5555H48.5085V13.5547H48.5077ZM46.1839 21.09C46.1839 20.9023 46.1654 20.6751 46.1266 20.4849C45.9188 19.5792 45.1831 18.8411 44.1235 18.8411C42.6304 18.8411 41.7972 20.165 41.7972 21.8845C41.7972 23.5653 42.6296 24.795 44.105 24.795C45.0485 24.795 45.8809 24.1511 46.1073 23.1495C46.1645 22.9425 46.1847 22.7144 46.1847 22.4695V21.09H46.1839ZM50.1523 26.4589V17.2529H52.498V26.4589H50.1523ZM54.1409 20.2214C54.1409 18.9741 54.1232 18.0845 54.0668 17.2538H56.0893L56.1634 19.0103H56.2399C56.6936 17.7066 57.7701 17.2538 58.7556 17.2538C58.982 17.2538 59.1133 17.215 59.3019 17.2538V19.2964C59.0788 19.2471 58.8511 19.2217 58.6227 19.2207C57.5049 19.2207 56.7491 19.9395 56.5421 20.9772C56.4963 21.2148 56.4712 21.4558 56.4672 21.6977V26.4598H54.1409V20.2214ZM60.3809 26.4589V17.2529H62.7232V26.4589H60.3809Z" fill="white"/>
<path d="M77.314 7.51672C76.1534 6.1928 74.9195 6.79206 73.939 7.27937C73.5266 7.48305 70.5497 9.17057 70.5497 9.17057C68.9185 9.84305 67.6485 9.10913 67.1502 8.49135C67.1026 8.43277 67.0595 8.37058 67.0214 8.30535L66.9053 8.10419C66.709 7.76467 66.4908 7.43826 66.2522 7.12703C66.1073 6.93839 65.9505 6.7593 65.7825 6.5909C64.6665 5.46393 62.883 4.6753 59.9019 6.10779C58.4904 6.92588 53.8925 9.55268 53.8925 9.55268C52.1646 10.2639 50.8432 9.39781 50.414 8.76236C50.3946 8.73857 50.3777 8.71292 50.3635 8.68577L50.3071 8.58983L50.0159 8.11345C49.8844 7.90477 49.7434 7.70228 49.5933 7.50662C49.4471 7.31918 49.29 7.14044 49.1229 6.97133C48.0144 5.85109 46.2402 5.06414 43.2852 6.4697C41.4983 7.48979 37.3422 9.86577 37.3422 9.86577L37.3406 9.86746L34.2988 11.6055L35.8727 13.5379C36.5351 14.1691 37.7799 15.2044 39.7056 14.3316C39.7056 14.3316 45.0206 11.2537 45.0417 11.2444C49.5858 8.75058 51.8279 11.1333 52.8194 12.7215C52.8539 12.7712 52.8817 12.825 52.9128 12.873L52.9145 12.8755C52.9271 12.8949 52.9347 12.9126 52.9456 12.9311L53.0576 13.1146C53.5407 13.8468 54.3024 14.3198 55.2105 14.2979C55.7113 14.2878 56.0513 14.1245 56.5462 13.8493L61.6887 10.8665L61.6997 10.8614C66.301 8.33733 68.581 10.8758 69.5548 12.464C69.6306 12.6011 69.7164 12.7324 69.8048 12.8545C70.2871 13.5084 70.952 13.9368 71.797 13.9158C72.355 13.9049 72.9803 13.5699 73.0738 13.5084L79.2389 9.94994C79.2406 9.95162 78.611 8.99971 77.314 7.51672Z" fill="#FDD213"/>
</svg>
