<svg width="24" height="24" viewBox="0 0 24 24" fill="none" xmlns="http://www.w3.org/2000/svg">
<path d="M10.92 12.75L12 11.93L13.07 12.74C13.46 13.03 13.99 12.66 13.85 12.19L13.43 10.83L14.63 9.88C15 9.6 14.79 9 14.31 9H12.91L12.48 7.66C12.4471 7.55997 12.3835 7.47287 12.2982 7.41112C12.2129 7.34937 12.1103 7.31612 12.005 7.31612C11.8997 7.31612 11.7971 7.34937 11.7118 7.41112C11.6265 7.47287 11.5629 7.55997 11.53 7.66L11.09 9H9.68C9.21 9 9 9.6 9.37 9.89L10.56 10.84L10.14 12.2C10 12.67 10.53 13.04 10.92 12.75ZM6 21.61C6 22.29 6.67 22.77 7.32 22.56L12 21L16.68 22.56C16.8306 22.6114 16.9914 22.6259 17.1488 22.6025C17.3063 22.5791 17.4558 22.5184 17.585 22.4254C17.7142 22.3324 17.8192 22.2099 17.8914 22.0681C17.9636 21.9262 18.0009 21.7692 18 21.61V15.28C19.2894 13.8235 20.0009 11.9453 20 10C20 5.58 16.42 2 12 2C7.58 2 4 5.58 4 10C4 12.03 4.76 13.87 6 15.28V21.61ZM12 4C15.31 4 18 6.69 18 10C18 13.31 15.31 16 12 16C8.69 16 6 13.31 6 10C6 6.69 8.69 4 12 4Z" fill="black"/>
</svg>
