<svg width="24" height="24" viewBox="0 0 24 24" fill="none" xmlns="http://www.w3.org/2000/svg">
<path d="M9.00002 16.1701L5.53002 12.7001C5.34305 12.5131 5.08945 12.4081 4.82502 12.4081C4.5606 12.4081 4.307 12.5131 4.12002 12.7001C3.93305 12.8871 3.828 13.1407 3.828 13.4051C3.828 13.536 3.85379 13.6657 3.9039 13.7866C3.954 13.9076 4.02744 14.0175 4.12002 14.1101L8.30002 18.2901C8.69002 18.6801 9.32002 18.6801 9.71002 18.2901L20.29 7.71008C20.477 7.5231 20.582 7.2695 20.582 7.00508C20.582 6.74065 20.477 6.48706 20.29 6.30008C20.103 6.1131 19.8494 6.00806 19.585 6.00806C19.3206 6.00806 19.067 6.1131 18.88 6.30008L9.00002 16.1701Z" fill="black"/>
</svg>
