<svg width="35" height="35" viewBox="-5 -5 35 35" fill="none" xmlns="http://www.w3.org/2000/svg">
<path d="M3 16.9999H21C21.55 16.9999 22 17.4499 22 17.9999C22 18.5499 21.55 18.9999 21 18.9999H3C2.45 18.9999 2 18.5499 2 17.9999C2 17.4499 2.45 16.9999 3 16.9999ZM2.5 12.5699C2.86 12.7799 3.32 12.6499 3.53 12.2899L4 11.4699L4.48 12.2999C4.69 12.6599 5.15 12.7799 5.51 12.5799C5.87 12.3699 5.99 11.9199 5.79 11.5599L5.3 10.7199H6.25C6.66 10.7199 7 10.3799 7 9.96992C7 9.55992 6.66 9.21992 6.25 9.21992H5.3L5.77 8.39992C5.98 8.03992 5.86 7.57992 5.5 7.36992C5.32574 7.27292 5.12045 7.2479 4.92799 7.30022C4.73554 7.35254 4.57117 7.47804 4.47 7.64992L4 8.46992L3.53 7.64992C3.42883 7.47804 3.26446 7.35254 3.07201 7.30022C2.87955 7.2479 2.67426 7.27292 2.5 7.36992C2.14 7.57992 2.02 8.03992 2.23 8.39992L2.7 9.21992H1.75C1.34 9.21992 1 9.55992 1 9.96992C1 10.3799 1.34 10.7199 1.75 10.7199H2.7L2.22 11.5499C2.02 11.9099 2.14 12.3699 2.5 12.5699ZM10.5 12.5699C10.86 12.7799 11.32 12.6499 11.53 12.2899L12 11.4699L12.48 12.2999C12.69 12.6599 13.15 12.7799 13.51 12.5799C13.87 12.3699 13.99 11.9199 13.79 11.5599L13.31 10.7299H14.26C14.67 10.7299 15.01 10.3899 15.01 9.97992C15.01 9.56992 14.67 9.22992 14.26 9.22992H13.3L13.77 8.40992C13.8689 8.23709 13.896 8.03235 13.8455 7.83973C13.795 7.64712 13.671 7.48201 13.5 7.37992C13.4153 7.33066 13.3217 7.29857 13.2246 7.28549C13.1275 7.2724 13.0288 7.27856 12.9341 7.30364C12.8394 7.32871 12.7505 7.3722 12.6726 7.43161C12.5947 7.49103 12.5292 7.56521 12.48 7.64992L12 8.46992L11.53 7.64992C11.4811 7.56482 11.4159 7.49024 11.338 7.43053C11.2602 7.37081 11.1712 7.32713 11.0764 7.30202C10.9815 7.27691 10.8826 7.27086 10.7854 7.28424C10.6882 7.29761 10.5946 7.33013 10.51 7.37992C10.15 7.58992 10.03 8.04992 10.24 8.40992L10.71 9.22992H9.75C9.65198 9.2286 9.55468 9.24676 9.46374 9.28335C9.3728 9.31995 9.29004 9.37425 9.22026 9.44309C9.15049 9.51194 9.09508 9.59397 9.05727 9.68441C9.01946 9.77485 8.99999 9.8719 9 9.96992C9 10.3799 9.34 10.7199 9.75 10.7199H10.7L10.22 11.5499C10.02 11.9099 10.14 12.3699 10.5 12.5699ZM23 9.96992C23 9.55992 22.66 9.21992 22.25 9.21992H21.3L21.77 8.39992C21.8689 8.22709 21.896 8.02235 21.8455 7.82973C21.795 7.63712 21.671 7.47201 21.5 7.36992C21.4153 7.32066 21.3217 7.28857 21.2246 7.27549C21.1275 7.2624 21.0288 7.26856 20.9341 7.29364C20.8394 7.31871 20.7505 7.3622 20.6726 7.42161C20.5947 7.48103 20.5292 7.55521 20.48 7.63992L20 8.46992L19.53 7.64992C19.4811 7.56482 19.4159 7.49024 19.338 7.43053C19.2602 7.37081 19.1712 7.32713 19.0764 7.30202C18.9815 7.27691 18.8826 7.27086 18.7854 7.28424C18.6882 7.29761 18.5946 7.33013 18.51 7.37992C18.15 7.58992 18.03 8.04992 18.24 8.40992L18.71 9.22992H17.76C17.6613 9.22766 17.5631 9.24511 17.4711 9.28125C17.3792 9.31739 17.2954 9.37149 17.2247 9.44039C17.1539 9.50929 17.0976 9.59161 17.059 9.68253C17.0204 9.77345 17.0004 9.87116 17 9.96992C17 10.3799 17.34 10.7199 17.75 10.7199H18.7L18.22 11.5499C18.1703 11.635 18.1382 11.7292 18.1254 11.8268C18.1126 11.9245 18.1194 12.0238 18.1455 12.1188C18.1716 12.2138 18.2164 12.3026 18.2773 12.3801C18.3381 12.4576 18.4139 12.5221 18.5 12.5699C18.86 12.7799 19.32 12.6499 19.53 12.2899L20 11.4699L20.48 12.2999C20.69 12.6599 21.15 12.7799 21.51 12.5799C21.87 12.3699 21.99 11.9199 21.79 11.5599L21.31 10.7299H22.26C22.66 10.7199 23 10.3799 23 9.96992Z" fill="#10B981"/>
</svg>
