<svg width="24" height="24" viewBox="0 0 24 24" fill="none" xmlns="http://www.w3.org/2000/svg">
<path d="M12.72 2.03003C11.2895 1.92589 9.8533 2.131 8.50909 2.63139C7.16489 3.13178 5.94418 3.91574 4.92996 4.92996C3.91574 5.94418 3.13178 7.16489 2.63139 8.50909C2.131 9.8533 1.92589 11.2895 2.03003 12.72C2.39003 18.01 7.01003 22 12.31 22H16C16.55 22 17 21.55 17 21C17 20.45 16.55 20 16 20H12.33C8.60003 20 5.18003 17.58 4.25003 13.97C2.76003 8.17003 8.16003 2.76003 13.96 4.26003C17.58 5.18003 20 8.60003 20 12.33V13.43C20 14.22 19.29 15 18.5 15C17.71 15 17 14.22 17 13.43V12.18C17 9.67003 15.22 7.41003 12.74 7.06003C11.951 6.9427 11.1453 7.01556 10.3901 7.27255C9.63495 7.52953 8.95208 7.9632 8.39837 8.53745C7.84466 9.1117 7.43615 9.80991 7.20684 10.574C6.97752 11.338 6.93405 12.1458 7.08003 12.93C7.25542 13.875 7.69965 14.7493 8.35947 15.4482C9.01929 16.147 9.86668 16.6407 10.8 16.87C12.64 17.3 14.39 16.71 15.54 15.54C16.43 16.76 18.21 17.4 19.84 16.75C21.18 16.22 22 14.85 22 13.41V12.32C22 7.01003 18.01 2.39003 12.72 2.03003ZM12 15C10.34 15 9.00003 13.66 9.00003 12C9.00003 10.34 10.34 9.00003 12 9.00003C13.66 9.00003 15 10.34 15 12C15 13.66 13.66 15 12 15Z" fill="black"/>
</svg>
