<svg width="24" height="24" viewBox="0 0 24 24" fill="none" xmlns="http://www.w3.org/2000/svg">
<path d="M8.11998 9.29007L12 13.1701L15.88 9.29007C15.9726 9.19749 16.0825 9.12405 16.2034 9.07394C16.3244 9.02384 16.454 8.99805 16.585 8.99805C16.7159 8.99805 16.8456 9.02384 16.9665 9.07394C17.0875 9.12405 17.1974 9.19749 17.29 9.29007C17.3826 9.38265 17.456 9.49256 17.5061 9.61352C17.5562 9.73449 17.582 9.86414 17.582 9.99507C17.582 10.126 17.5562 10.2556 17.5061 10.3766C17.456 10.4976 17.3826 10.6075 17.29 10.7001L12.7 15.2901C12.6075 15.3828 12.4976 15.4563 12.3766 15.5065C12.2556 15.5567 12.1259 15.5825 11.995 15.5825C11.864 15.5825 11.7343 15.5567 11.6134 15.5065C11.4924 15.4563 11.3825 15.3828 11.29 15.2901L6.69998 10.7001C6.60727 10.6076 6.53372 10.4977 6.48354 10.3767C6.43336 10.2557 6.40753 10.126 6.40753 9.99507C6.40753 9.8641 6.43336 9.73442 6.48354 9.61344C6.53372 9.49247 6.60727 9.38258 6.69998 9.29007C7.08998 8.91007 7.72998 8.90007 8.11998 9.29007Z" fill="black"/>
</svg>
