<svg width="24" height="24" viewBox="0 0 24 24" fill="none" xmlns="http://www.w3.org/2000/svg">
<path d="M7 18C5.9 18 5.01 18.9 5.01 20C5.01 21.1 5.9 22 7 22C8.1 22 9 21.1 9 20C9 18.9 8.1 18 7 18ZM1 3C1 3.55 1.45 4 2 4H3L6.6 11.59L5.25 14.03C4.52 15.37 5.48 17 7 17H18C18.55 17 19 16.55 19 16C19 15.45 18.55 15 18 15H7L8.1 13H15.55C16.3 13 16.96 12.59 17.3 11.97L20.88 5.48C20.9643 5.32843 21.0075 5.15747 21.0054 4.98406C21.0034 4.81064 20.956 4.64077 20.8681 4.49126C20.7803 4.34175 20.6549 4.21778 20.5043 4.13162C20.3538 4.04546 20.1834 4.00009 20.01 4H5.21L4.54 2.57C4.45963 2.39931 4.3323 2.25504 4.17291 2.15409C4.01352 2.05315 3.82867 1.9997 3.64 2H2C1.45 2 1 2.45 1 3ZM17 18C15.9 18 15.01 18.9 15.01 20C15.01 21.1 15.9 22 17 22C18.1 22 19 21.1 19 20C19 18.9 18.1 18 17 18Z" fill="black"/>
</svg>
