<svg width="128" height="128" viewBox="0 0 128 128" fill="none" xmlns="http://www.w3.org/2000/svg">
<path d="M120.274 99.2738H7.72625C3.45925 99.2738 0 95.8148 0 91.5475V18.8122C0 14.545 3.45925 11.086 7.72625 11.086H120.273C124.541 11.086 128 14.5452 128 18.8122V91.5475C128 95.8148 124.541 99.2738 120.274 99.2738Z" fill="#506D90"/>
<path d="M120.274 11.086H112.548C116.815 11.086 120.274 14.5452 120.274 18.8122V91.5475C120.274 95.8148 116.815 99.2738 112.548 99.2738H120.274C124.541 99.2738 128 95.8145 128 91.5475V18.8122C128 14.5452 124.541 11.086 120.274 11.086Z" fill="#455F7E"/>
<path d="M7.72656 86.654V19.8425C7.72656 19.2735 8.18781 18.8123 8.75681 18.8123H119.244C119.813 18.8123 120.274 19.2735 120.274 19.8425V86.654C120.274 87.223 119.813 87.6843 119.244 87.6843H8.75681C8.18781 87.6843 7.72656 87.223 7.72656 86.654Z" fill="#ECF5FF"/>
<path d="M7.72656 86.654V19.8425C7.72656 19.2735 8.18781 18.8123 8.75681 18.8123H119.244C119.813 18.8123 120.274 19.2735 120.274 19.8425V86.654C120.274 87.223 119.813 87.6843 119.244 87.6843H8.75681C8.18781 87.6843 7.72656 87.223 7.72656 86.654Z" fill="#ECF5FF"/>
<path d="M119.244 18.8123H111.518C112.087 18.8123 112.548 19.2735 112.548 19.8425V86.654C112.548 87.223 112.087 87.6843 111.518 87.6843H119.244C119.813 87.6843 120.274 87.223 120.274 86.654V19.8425C120.274 19.2735 119.813 18.8123 119.244 18.8123Z" fill="#DBEAFD"/>
<path d="M76.7592 128H51.2402L55.1035 99.2738H72.896L76.7592 128Z" fill="#455F7E"/>
<path d="M72.8962 99.2738H65.1699L69.0332 128H76.7594L72.8962 99.2738Z" fill="#405972"/>
<path d="M80.7134 115.58L83.4336 125.389C83.7976 126.702 82.8104 128 81.4481 128H46.5519C45.1896 128 44.2024 126.702 44.5664 125.389L47.2866 115.58C47.5341 114.688 48.3461 114.071 49.2721 114.071H78.7281C79.6539 114.071 80.4661 114.688 80.7134 115.58Z" fill="#506D90"/>
<path d="M83.434 125.389L80.7137 115.58C80.4662 114.688 79.6542 114.071 78.7282 114.071H71.002C71.9277 114.071 72.74 114.688 72.9875 115.58L75.7077 125.389C76.0717 126.702 75.0845 128 73.7222 128H81.4485C82.8107 128 83.798 126.702 83.434 125.389Z" fill="#455F7E"/>
<path d="M26.916 15.4527H101.084V87.684H26.916V15.4527Z" fill="#F9F6F6"/>
<path d="M93.3574 15.4527H101.084V87.6842H93.3574V15.4527Z" fill="#E2D8EC"/>
<path d="M97.9935 0H30.0065C28.2998 0 26.916 1.38375 26.916 3.0905V15.4528H101.084V3.0905C101.084 1.38375 99.7003 0 97.9935 0V0Z" fill="#455F7E"/>
<path d="M97.9938 0H90.2676C91.9743 0 93.3581 1.38375 93.3581 3.0905V15.4528H101.084V3.0905C101.084 1.38375 99.7006 0 97.9938 0V0Z" fill="#405972"/>
<path d="M34.6424 9.65775C35.7092 9.65775 36.5739 8.79299 36.5739 7.72625C36.5739 6.65952 35.7092 5.79475 34.6424 5.79475C33.5757 5.79475 32.7109 6.65952 32.7109 7.72625C32.7109 8.79299 33.5757 9.65775 34.6424 9.65775Z" fill="#D5707E"/>
<path d="M42.369 9.65775C43.4357 9.65775 44.3005 8.79299 44.3005 7.72625C44.3005 6.65952 43.4357 5.79475 42.369 5.79475C41.3023 5.79475 40.4375 6.65952 40.4375 7.72625C40.4375 8.79299 41.3023 9.65775 42.369 9.65775Z" fill="#F0D16F"/>
<path d="M50.0956 9.65775C51.1623 9.65775 52.0271 8.79299 52.0271 7.72625C52.0271 6.65952 51.1623 5.79475 50.0956 5.79475C49.0288 5.79475 48.1641 6.65952 48.1641 7.72625C48.1641 8.79299 49.0288 9.65775 50.0956 9.65775Z" fill="#A4D9A6"/>
<path d="M93.3576 30.321H71.3426C70.2756 30.321 69.4111 29.4563 69.4111 28.3895C69.4111 27.3228 70.2759 26.458 71.3426 26.458H93.3576C94.4246 26.458 95.2891 27.3228 95.2891 28.3895C95.2891 29.4563 94.4244 30.321 93.3576 30.321Z" fill="#D5C6E4"/>
<path d="M93.3577 41.9105H78.4227C77.3557 41.9105 76.4912 41.0458 76.4912 39.979C76.4912 38.9123 77.356 38.0475 78.4227 38.0475H93.3577C94.4247 38.0475 95.2892 38.9123 95.2892 39.979C95.2892 41.0458 94.4245 41.9105 93.3577 41.9105Z" fill="#D5C6E4"/>
<path d="M93.3577 53.5003H80.2254C79.1584 53.5003 78.2939 52.6355 78.2939 51.5688C78.2939 50.502 79.1587 49.6373 80.2254 49.6373H93.3577C94.4247 49.6373 95.2892 50.502 95.2892 51.5688C95.2892 52.6353 94.4244 53.5003 93.3577 53.5003Z" fill="#D5C6E4"/>
<path d="M93.3577 65.0898H78.1649C77.0979 65.0898 76.2334 64.225 76.2334 63.1583C76.2334 62.0915 77.0982 61.2268 78.1649 61.2268H93.3577C94.4247 61.2268 95.2892 62.0915 95.2892 63.1583C95.2892 64.2248 94.4244 65.0898 93.3577 65.0898Z" fill="#D5C6E4"/>
<path d="M93.3576 76.6793H71.3426C70.2756 76.6793 69.4111 75.8145 69.4111 74.7478C69.4111 73.681 70.2759 72.8163 71.3426 72.8163H93.3576C94.4246 72.8163 95.2891 73.681 95.2891 74.7478C95.2891 75.8145 94.4244 76.6793 93.3576 76.6793Z" fill="#D5C6E4"/>
<path d="M27.8271 90.6145L19.1561 85.6081L29.6787 67.3829L38.3498 72.3893L27.8271 90.6145Z" fill="#506D90"/>
<path d="M4.34347 121.274C8.49697 123.672 13.808 122.249 16.206 118.095L31.5805 91.4655C32.596 89.7065 31.9932 87.4575 30.2345 86.442L21.5632 81.4358C19.8042 80.4203 17.5552 81.023 16.5397 82.7818L1.16472 109.411C-1.23303 113.565 0.18997 118.876 4.34347 121.274Z" fill="#E3A76A"/>
<path d="M30.234 86.4417L21.5627 81.4352C19.8037 80.4197 17.5547 81.0225 16.5392 82.7812L16.4465 82.942L22.5077 86.4415C24.2667 87.457 24.8692 89.7062 23.8537 91.465L8.47924 118.095C7.59124 119.633 6.30349 120.795 4.82324 121.529C8.89774 123.557 13.899 122.09 16.2055 118.095L31.58 91.4655C32.5957 89.7065 31.993 87.4572 30.234 86.4417Z" fill="#D79956"/>
<path d="M69.8469 62.6287C75.8979 48.6368 69.4605 32.3889 55.4686 26.338C41.4767 20.287 25.2288 26.7244 19.1779 40.7163C13.1269 54.7081 19.5643 70.956 33.5562 77.007C47.548 83.0579 63.796 76.6206 69.8469 62.6287Z" fill="#CAE0FF"/>
<path d="M44.5097 24.105C43.1987 24.105 41.9092 24.199 40.6465 24.3768C54.0412 26.2615 64.3807 37.7963 64.3807 51.7028C64.3807 65.609 54.0412 77.1438 40.6465 79.0285C41.9092 79.2063 43.1985 79.3003 44.5095 79.3003C59.7267 79.3003 72.107 66.92 72.107 51.7028C72.1072 36.4853 59.727 24.105 44.5097 24.105Z" fill="#BCD7FD"/>
<path d="M48.6606 68.2704C57.8109 65.9993 63.3877 56.7405 61.1166 47.5902C58.8456 38.44 49.5867 32.8634 40.4363 35.1345C31.286 37.4056 25.7092 46.6644 27.9803 55.8146C30.2513 64.9648 39.5102 70.5414 48.6606 68.2704Z" fill="#ECF5FF"/>
<path d="M44.5097 34.6395C43.1807 34.6395 41.8887 34.7973 40.6465 35.086C48.1995 36.8418 53.8462 43.6228 53.8462 51.7025C53.8462 59.782 48.1995 66.563 40.6465 68.3188C41.8887 68.6075 43.1807 68.7653 44.5097 68.7653C53.9182 68.7653 61.5725 61.111 61.5725 51.7025C61.5725 42.294 53.9182 34.6395 44.5097 34.6395Z" fill="#DBEAFD"/>
</svg>
